<?xml version="1.0" standalone="no"?>
<!DOCTYPE svg PUBLIC "-//W3C//DTD SVG 20010904//EN"
 "http://www.w3.org/TR/2001/REC-SVG-20010904/DTD/svg10.dtd">
<svg version="1.0" xmlns="http://www.w3.org/2000/svg"
 width="1000.000000pt" height="1000.000000pt" viewBox="0 0 1000.000000 1000.000000"
 preserveAspectRatio="xMidYMid meet">

<g transform="translate(0.000000,1000.000000) scale(0.100000,-0.100000)"
fill="#000000" stroke="none">
<path d="M4420 5381 c-22 -43 -7 -61 51 -61 19 0 29 5 29 15 0 23 30 18 40 -7
7 -18 9 -19 9 -5 1 13 10 17 42 17 40 0 41 -1 36 -29 -3 -16 -1 -34 6 -42 7
-7 2 -5 -10 5 -15 13 -30 16 -51 11 -22 -4 -33 -2 -39 9 -23 42 -30 -8 -36
-251 -5 -230 -4 -253 12 -267 10 -9 27 -16 39 -16 11 0 24 -4 27 -10 3 -5 17
-10 30 -10 13 0 26 -4 29 -9 3 -5 30 -12 61 -16 30 -3 57 -11 60 -16 4 -5 19
-9 35 -9 15 0 30 -3 32 -8 6 -14 134 -52 176 -52 25 0 111 22 200 51 234 77
272 92 278 111 3 10 10 18 15 18 20 0 7 466 -14 487 -9 8 -57 -21 -57 -34 0
-16 -16 -17 -26 -2 -3 6 8 26 26 44 23 24 28 34 18 39 -7 3 3 3 22 0 19 -4 38
-11 42 -17 8 -13 88 -10 102 3 5 5 2 16 -8 25 -9 9 -16 23 -16 31 0 12 -83 14
-575 14 -558 0 -575 -1 -585 -19z m530 -47 c0 -8 7 -14 15 -14 8 0 15 4 15 9
0 12 62 20 81 10 10 -5 24 -2 39 8 21 15 24 15 36 -2 21 -28 17 -44 -13 -51
-16 -4 -34 -11 -40 -17 -9 -7 -13 -5 -13 7 0 25 -48 32 -65 10 -9 -12 -14 -14
-15 -6 0 8 -5 10 -12 6 -21 -13 -62 -11 -89 4 -25 14 -28 13 -55 -11 -28 -27
-47 -28 -37 -2 7 20 -26 20 -52 1 -23 -16 -55 -5 -55 19 0 8 -4 15 -10 15 -5
0 -10 -9 -10 -20 0 -33 -18 -23 -22 13 l-3 32 72 1 c40 0 73 -4 73 -8 0 -12
38 -10 45 2 3 6 15 10 26 10 10 0 19 -4 19 -10 0 -15 19 -12 37 5 16 17 33 12
33 -11z m423 7 c38 0 48 -16 25 -39 -17 -17 -48 -15 -69 4 -18 16 -44 11 -34
-6 9 -14 -65 -24 -78 -11 -8 8 -4 11 16 11 15 0 27 5 27 11 0 13 -53 2 -58
-12 -2 -5 -10 -9 -17 -9 -8 0 -18 -8 -24 -17 -5 -10 -13 -15 -16 -11 -4 4 0
14 9 23 9 9 16 24 16 34 0 10 2 20 4 22 2 2 40 3 83 2 43 -1 95 -2 116 -2z
m-592 -110 c19 -15 23 -28 24 -72 0 -53 0 -54 -30 -54 -27 0 -31 4 -35 34 -6
42 -30 54 -30 15 0 -16 14 -44 34 -68 48 -60 66 -99 66 -149 0 -64 -28 -97
-84 -97 -52 0 -75 22 -86 82 -10 54 -4 68 30 68 27 0 29 -3 32 -42 2 -31 8
-44 21 -46 9 -2 20 4 23 12 11 28 -6 67 -48 109 -52 54 -71 98 -63 148 12 70
93 103 146 60z m195 4 c2 -5 13 -80 24 -165 11 -85 23 -172 26 -192 6 -37 6
-38 -23 -38 -24 0 -30 5 -38 33 -8 25 -15 32 -35 32 -19 0 -26 -7 -34 -32 -7
-28 -14 -33 -39 -33 -29 0 -29 0 -23 43 10 60 26 180 35 268 4 42 11 81 15 87
8 14 87 11 92 -3z m149 9 c14 -6 15 -24 9 -175 l-7 -168 39 -3 c34 -3 39 -6
39 -28 0 -24 -3 -25 -66 -28 l-67 -3 -7 195 c-4 107 -4 199 -1 205 8 12 36 14
61 5z m250 -34 c0 -30 -3 -35 -25 -36 -14 -1 -29 -2 -35 -3 -5 0 -9 -20 -9
-43 1 -39 4 -43 30 -48 22 -4 30 -11 32 -32 3 -24 -1 -27 -30 -30 -33 -3 -33
-3 -36 -60 l-3 -58 36 0 c32 0 35 -2 35 -30 l0 -31 -67 3 -68 3 -5 190 c-3
105 -1 195 3 201 5 7 34 11 75 10 l67 -1 0 -35z"/>
<path d="M5110 5330 c0 -5 5 -10 10 -10 6 0 10 5 10 10 0 6 -4 10 -10 10 -5 0
-10 -4 -10 -10z"/>
<path d="M4715 5311 c-3 -5 -1 -12 5 -16 5 -3 10 1 10 9 0 18 -6 21 -15 7z"/>
<path d="M4915 5019 c-8 -45 6 -72 26 -52 12 12 3 93 -11 93 -5 0 -11 -18 -15
-41z"/>
<path d="M4570 5310 c0 -5 5 -10 11 -10 5 0 7 5 4 10 -3 6 -8 10 -11 10 -2 0
-4 -4 -4 -10z"/>
</g>
</svg>
